%TF.GenerationSoftware,KiCad,Pcbnew,9.0.7+1*%
%TF.CreationDate,Date%
%TF.ProjectId,01_HAT_INA226,30315f48-4154-45f4-994e-413232362e6b,+ (Unreleased)*%
%TF.SameCoordinates,Original*%
%TF.FileFunction,Legend,Top*%
%TF.FilePolarity,Positive*%
%FSLAX46Y46*%
G04 Gerber Fmt 4.6, Leading zero omitted, Abs format (unit mm)*
G04 Created by KiCad*
%MOMM*%
%LPD*%
G01*
G04 APERTURE LIST*
G04 Aperture macros list*
%AMRoundRect*
0 Rectangle with rounded corners*
0 $1 Rounding radius*
0 $2 $3 $4 $5 $6 $7 $8 $9 X,Y pos of 4 corners*
0 Add a 4 corners polygon primitive as box body*
4,1,4,$2,$3,$4,$5,$6,$7,$8,$9,$2,$3,0*
0 Add four circle primitives for the rounded corners*
1,1,$1+$1,$2,$3*
1,1,$1+$1,$4,$5*
1,1,$1+$1,$6,$7*
1,1,$1+$1,$8,$9*
0 Add four rect primitives between the rounded corners*
20,1,$1+$1,$2,$3,$4,$5,0*
20,1,$1+$1,$4,$5,$6,$7,0*
20,1,$1+$1,$6,$7,$8,$9,0*
20,1,$1+$1,$8,$9,$2,$3,0*%
G04 Aperture macros list end*
%ADD10C,0.100000*%
%ADD11C,0.150000*%
%ADD12C,0.250000*%
%ADD13C,0.120000*%
%ADD14C,0.200000*%
%ADD15RoundRect,0.155000X-0.155000X-0.155000X0.155000X-0.155000X0.155000X0.155000X-0.155000X0.155000X0*%
%ADD16C,0.499800*%
%ADD17RoundRect,0.162500X-0.162500X-0.162500X0.162500X-0.162500X0.162500X0.162500X-0.162500X0.162500X0*%
%ADD18RoundRect,0.095000X-0.555000X-0.095000X0.555000X-0.095000X0.555000X0.095000X-0.555000X0.095000X0*%
%ADD19RoundRect,0.095000X-0.095000X-0.555000X0.095000X-0.555000X0.095000X0.555000X-0.095000X0.555000X0*%
%ADD20RoundRect,0.050000X-0.127000X-0.337500X0.127000X-0.337500X0.127000X0.337500X-0.127000X0.337500X0*%
%ADD21RoundRect,0.050000X0.337500X-0.127000X0.337500X0.127000X-0.337500X0.127000X-0.337500X-0.127000X0*%
%ADD22C,2.000000*%
%ADD23C,6.500000*%
%ADD24RoundRect,0.212500X-0.212500X-0.287500X0.212500X-0.287500X0.212500X0.287500X-0.212500X0.287500X0*%
%ADD25RoundRect,0.175000X-0.175000X-0.725000X0.175000X-0.725000X0.175000X0.725000X-0.175000X0.725000X0*%
%ADD26RoundRect,0.275000X-0.275000X-1.125000X0.275000X-1.125000X0.275000X1.125000X-0.275000X1.125000X0*%
%ADD27RoundRect,0.175000X-0.175000X-0.425000X0.175000X-0.425000X0.175000X0.425000X-0.175000X0.425000X0*%
%ADD28RoundRect,0.175000X-0.537500X-0.175000X0.537500X-0.175000X0.537500X0.175000X-0.537500X0.175000X0*%
%ADD29RoundRect,0.275000X-0.275000X-1.525000X0.275000X-1.525000X0.275000X1.525000X-0.275000X1.525000X0*%
%ADD30RoundRect,0.266667X-0.533333X-1.483333X0.533333X-1.483333X0.533333X1.483333X-0.533333X1.483333X0*%
%ADD31RoundRect,0.165000X-0.165000X-0.195000X0.165000X-0.195000X0.165000X0.195000X-0.165000X0.195000X0*%
G04 APERTURE END LIST*
D10*
X166808333Y-99412180D02*
X166760714Y-99459800D01*
X166760714Y-99459800D02*
X166617857Y-99507419D01*
X166617857Y-99507419D02*
X166522619Y-99507419D01*
X166522619Y-99507419D02*
X166379762Y-99459800D01*
X166379762Y-99459800D02*
X166284524Y-99364561D01*
X166284524Y-99364561D02*
X166236905Y-99269323D01*
X166236905Y-99269323D02*
X166189286Y-99078847D01*
X166189286Y-99078847D02*
X166189286Y-98935990D01*
X166189286Y-98935990D02*
X166236905Y-98745514D01*
X166236905Y-98745514D02*
X166284524Y-98650276D01*
X166284524Y-98650276D02*
X166379762Y-98555038D01*
X166379762Y-98555038D02*
X166522619Y-98507419D01*
X166522619Y-98507419D02*
X166617857Y-98507419D01*
X166617857Y-98507419D02*
X166760714Y-98555038D01*
X166760714Y-98555038D02*
X166808333Y-98602657D01*
X167760714Y-99507419D02*
X167189286Y-99507419D01*
X167475000Y-99507419D02*
X167475000Y-98507419D01*
X167475000Y-98507419D02*
X167379762Y-98650276D01*
X167379762Y-98650276D02*
X167284524Y-98745514D01*
X167284524Y-98745514D02*
X167189286Y-98793133D01*
X154532142Y-88162180D02*
X154484523Y-88209800D01*
X154484523Y-88209800D02*
X154341666Y-88257419D01*
X154341666Y-88257419D02*
X154246428Y-88257419D01*
X154246428Y-88257419D02*
X154103571Y-88209800D01*
X154103571Y-88209800D02*
X154008333Y-88114561D01*
X154008333Y-88114561D02*
X153960714Y-88019323D01*
X153960714Y-88019323D02*
X153913095Y-87828847D01*
X153913095Y-87828847D02*
X153913095Y-87685990D01*
X153913095Y-87685990D02*
X153960714Y-87495514D01*
X153960714Y-87495514D02*
X154008333Y-87400276D01*
X154008333Y-87400276D02*
X154103571Y-87305038D01*
X154103571Y-87305038D02*
X154246428Y-87257419D01*
X154246428Y-87257419D02*
X154341666Y-87257419D01*
X154341666Y-87257419D02*
X154484523Y-87305038D01*
X154484523Y-87305038D02*
X154532142Y-87352657D01*
X155484523Y-88257419D02*
X154913095Y-88257419D01*
X155198809Y-88257419D02*
X155198809Y-87257419D01*
X155198809Y-87257419D02*
X155103571Y-87400276D01*
X155103571Y-87400276D02*
X155008333Y-87495514D01*
X155008333Y-87495514D02*
X154913095Y-87543133D01*
X156341666Y-87590752D02*
X156341666Y-88257419D01*
X156103571Y-87209800D02*
X155865476Y-87924085D01*
X155865476Y-87924085D02*
X156484523Y-87924085D01*
X160208333Y-87032419D02*
X159875000Y-86556228D01*
X159636905Y-87032419D02*
X159636905Y-86032419D01*
X159636905Y-86032419D02*
X160017857Y-86032419D01*
X160017857Y-86032419D02*
X160113095Y-86080038D01*
X160113095Y-86080038D02*
X160160714Y-86127657D01*
X160160714Y-86127657D02*
X160208333Y-86222895D01*
X160208333Y-86222895D02*
X160208333Y-86365752D01*
X160208333Y-86365752D02*
X160160714Y-86460990D01*
X160160714Y-86460990D02*
X160113095Y-86508609D01*
X160113095Y-86508609D02*
X160017857Y-86556228D01*
X160017857Y-86556228D02*
X159636905Y-86556228D01*
X161065476Y-86032419D02*
X160875000Y-86032419D01*
X160875000Y-86032419D02*
X160779762Y-86080038D01*
X160779762Y-86080038D02*
X160732143Y-86127657D01*
X160732143Y-86127657D02*
X160636905Y-86270514D01*
X160636905Y-86270514D02*
X160589286Y-86460990D01*
X160589286Y-86460990D02*
X160589286Y-86841942D01*
X160589286Y-86841942D02*
X160636905Y-86937180D01*
X160636905Y-86937180D02*
X160684524Y-86984800D01*
X160684524Y-86984800D02*
X160779762Y-87032419D01*
X160779762Y-87032419D02*
X160970238Y-87032419D01*
X160970238Y-87032419D02*
X161065476Y-86984800D01*
X161065476Y-86984800D02*
X161113095Y-86937180D01*
X161113095Y-86937180D02*
X161160714Y-86841942D01*
X161160714Y-86841942D02*
X161160714Y-86603847D01*
X161160714Y-86603847D02*
X161113095Y-86508609D01*
X161113095Y-86508609D02*
X161065476Y-86460990D01*
X161065476Y-86460990D02*
X160970238Y-86413371D01*
X160970238Y-86413371D02*
X160779762Y-86413371D01*
X160779762Y-86413371D02*
X160684524Y-86460990D01*
X160684524Y-86460990D02*
X160636905Y-86508609D01*
X160636905Y-86508609D02*
X160589286Y-86603847D01*
X157132142Y-82762180D02*
X157084523Y-82809800D01*
X157084523Y-82809800D02*
X156941666Y-82857419D01*
X156941666Y-82857419D02*
X156846428Y-82857419D01*
X156846428Y-82857419D02*
X156703571Y-82809800D01*
X156703571Y-82809800D02*
X156608333Y-82714561D01*
X156608333Y-82714561D02*
X156560714Y-82619323D01*
X156560714Y-82619323D02*
X156513095Y-82428847D01*
X156513095Y-82428847D02*
X156513095Y-82285990D01*
X156513095Y-82285990D02*
X156560714Y-82095514D01*
X156560714Y-82095514D02*
X156608333Y-82000276D01*
X156608333Y-82000276D02*
X156703571Y-81905038D01*
X156703571Y-81905038D02*
X156846428Y-81857419D01*
X156846428Y-81857419D02*
X156941666Y-81857419D01*
X156941666Y-81857419D02*
X157084523Y-81905038D01*
X157084523Y-81905038D02*
X157132142Y-81952657D01*
X158084523Y-82857419D02*
X157513095Y-82857419D01*
X157798809Y-82857419D02*
X157798809Y-81857419D01*
X157798809Y-81857419D02*
X157703571Y-82000276D01*
X157703571Y-82000276D02*
X157608333Y-82095514D01*
X157608333Y-82095514D02*
X157513095Y-82143133D01*
X158989285Y-81857419D02*
X158513095Y-81857419D01*
X158513095Y-81857419D02*
X158465476Y-82333609D01*
X158465476Y-82333609D02*
X158513095Y-82285990D01*
X158513095Y-82285990D02*
X158608333Y-82238371D01*
X158608333Y-82238371D02*
X158846428Y-82238371D01*
X158846428Y-82238371D02*
X158941666Y-82285990D01*
X158941666Y-82285990D02*
X158989285Y-82333609D01*
X158989285Y-82333609D02*
X159036904Y-82428847D01*
X159036904Y-82428847D02*
X159036904Y-82666942D01*
X159036904Y-82666942D02*
X158989285Y-82762180D01*
X158989285Y-82762180D02*
X158941666Y-82809800D01*
X158941666Y-82809800D02*
X158846428Y-82857419D01*
X158846428Y-82857419D02*
X158608333Y-82857419D01*
X158608333Y-82857419D02*
X158513095Y-82809800D01*
X158513095Y-82809800D02*
X158465476Y-82762180D01*
D11*
X160338095Y-67404819D02*
X160338095Y-68214342D01*
X160338095Y-68214342D02*
X160385714Y-68309580D01*
X160385714Y-68309580D02*
X160433333Y-68357200D01*
X160433333Y-68357200D02*
X160528571Y-68404819D01*
X160528571Y-68404819D02*
X160719047Y-68404819D01*
X160719047Y-68404819D02*
X160814285Y-68357200D01*
X160814285Y-68357200D02*
X160861904Y-68309580D01*
X160861904Y-68309580D02*
X160909523Y-68214342D01*
X160909523Y-68214342D02*
X160909523Y-67404819D01*
X161290476Y-67404819D02*
X161909523Y-67404819D01*
X161909523Y-67404819D02*
X161576190Y-67785771D01*
X161576190Y-67785771D02*
X161719047Y-67785771D01*
X161719047Y-67785771D02*
X161814285Y-67833390D01*
X161814285Y-67833390D02*
X161861904Y-67881009D01*
X161861904Y-67881009D02*
X161909523Y-67976247D01*
X161909523Y-67976247D02*
X161909523Y-68214342D01*
X161909523Y-68214342D02*
X161861904Y-68309580D01*
X161861904Y-68309580D02*
X161814285Y-68357200D01*
X161814285Y-68357200D02*
X161719047Y-68404819D01*
X161719047Y-68404819D02*
X161433333Y-68404819D01*
X161433333Y-68404819D02*
X161338095Y-68357200D01*
X161338095Y-68357200D02*
X161290476Y-68309580D01*
D10*
X135608333Y-105712180D02*
X135560714Y-105759800D01*
X135560714Y-105759800D02*
X135417857Y-105807419D01*
X135417857Y-105807419D02*
X135322619Y-105807419D01*
X135322619Y-105807419D02*
X135179762Y-105759800D01*
X135179762Y-105759800D02*
X135084524Y-105664561D01*
X135084524Y-105664561D02*
X135036905Y-105569323D01*
X135036905Y-105569323D02*
X134989286Y-105378847D01*
X134989286Y-105378847D02*
X134989286Y-105235990D01*
X134989286Y-105235990D02*
X135036905Y-105045514D01*
X135036905Y-105045514D02*
X135084524Y-104950276D01*
X135084524Y-104950276D02*
X135179762Y-104855038D01*
X135179762Y-104855038D02*
X135322619Y-104807419D01*
X135322619Y-104807419D02*
X135417857Y-104807419D01*
X135417857Y-104807419D02*
X135560714Y-104855038D01*
X135560714Y-104855038D02*
X135608333Y-104902657D01*
X136179762Y-105235990D02*
X136084524Y-105188371D01*
X136084524Y-105188371D02*
X136036905Y-105140752D01*
X136036905Y-105140752D02*
X135989286Y-105045514D01*
X135989286Y-105045514D02*
X135989286Y-104997895D01*
X135989286Y-104997895D02*
X136036905Y-104902657D01*
X136036905Y-104902657D02*
X136084524Y-104855038D01*
X136084524Y-104855038D02*
X136179762Y-104807419D01*
X136179762Y-104807419D02*
X136370238Y-104807419D01*
X136370238Y-104807419D02*
X136465476Y-104855038D01*
X136465476Y-104855038D02*
X136513095Y-104902657D01*
X136513095Y-104902657D02*
X136560714Y-104997895D01*
X136560714Y-104997895D02*
X136560714Y-105045514D01*
X136560714Y-105045514D02*
X136513095Y-105140752D01*
X136513095Y-105140752D02*
X136465476Y-105188371D01*
X136465476Y-105188371D02*
X136370238Y-105235990D01*
X136370238Y-105235990D02*
X136179762Y-105235990D01*
X136179762Y-105235990D02*
X136084524Y-105283609D01*
X136084524Y-105283609D02*
X136036905Y-105331228D01*
X136036905Y-105331228D02*
X135989286Y-105426466D01*
X135989286Y-105426466D02*
X135989286Y-105616942D01*
X135989286Y-105616942D02*
X136036905Y-105712180D01*
X136036905Y-105712180D02*
X136084524Y-105759800D01*
X136084524Y-105759800D02*
X136179762Y-105807419D01*
X136179762Y-105807419D02*
X136370238Y-105807419D01*
X136370238Y-105807419D02*
X136465476Y-105759800D01*
X136465476Y-105759800D02*
X136513095Y-105712180D01*
X136513095Y-105712180D02*
X136560714Y-105616942D01*
X136560714Y-105616942D02*
X136560714Y-105426466D01*
X136560714Y-105426466D02*
X136513095Y-105331228D01*
X136513095Y-105331228D02*
X136465476Y-105283609D01*
X136465476Y-105283609D02*
X136370238Y-105235990D01*
D11*
X141483095Y-101049819D02*
X141483095Y-101859342D01*
X141483095Y-101859342D02*
X141530714Y-101954580D01*
X141530714Y-101954580D02*
X141578333Y-102002200D01*
X141578333Y-102002200D02*
X141673571Y-102049819D01*
X141673571Y-102049819D02*
X141864047Y-102049819D01*
X141864047Y-102049819D02*
X141959285Y-102002200D01*
X141959285Y-102002200D02*
X142006904Y-101954580D01*
X142006904Y-101954580D02*
X142054523Y-101859342D01*
X142054523Y-101859342D02*
X142054523Y-101049819D01*
X142483095Y-101145057D02*
X142530714Y-101097438D01*
X142530714Y-101097438D02*
X142625952Y-101049819D01*
X142625952Y-101049819D02*
X142864047Y-101049819D01*
X142864047Y-101049819D02*
X142959285Y-101097438D01*
X142959285Y-101097438D02*
X143006904Y-101145057D01*
X143006904Y-101145057D02*
X143054523Y-101240295D01*
X143054523Y-101240295D02*
X143054523Y-101335533D01*
X143054523Y-101335533D02*
X143006904Y-101478390D01*
X143006904Y-101478390D02*
X142435476Y-102049819D01*
X142435476Y-102049819D02*
X143054523Y-102049819D01*
D10*
X157132142Y-86362180D02*
X157084523Y-86409800D01*
X157084523Y-86409800D02*
X156941666Y-86457419D01*
X156941666Y-86457419D02*
X156846428Y-86457419D01*
X156846428Y-86457419D02*
X156703571Y-86409800D01*
X156703571Y-86409800D02*
X156608333Y-86314561D01*
X156608333Y-86314561D02*
X156560714Y-86219323D01*
X156560714Y-86219323D02*
X156513095Y-86028847D01*
X156513095Y-86028847D02*
X156513095Y-85885990D01*
X156513095Y-85885990D02*
X156560714Y-85695514D01*
X156560714Y-85695514D02*
X156608333Y-85600276D01*
X156608333Y-85600276D02*
X156703571Y-85505038D01*
X156703571Y-85505038D02*
X156846428Y-85457419D01*
X156846428Y-85457419D02*
X156941666Y-85457419D01*
X156941666Y-85457419D02*
X157084523Y-85505038D01*
X157084523Y-85505038D02*
X157132142Y-85552657D01*
X158084523Y-86457419D02*
X157513095Y-86457419D01*
X157798809Y-86457419D02*
X157798809Y-85457419D01*
X157798809Y-85457419D02*
X157703571Y-85600276D01*
X157703571Y-85600276D02*
X157608333Y-85695514D01*
X157608333Y-85695514D02*
X157513095Y-85743133D01*
X158417857Y-85457419D02*
X159084523Y-85457419D01*
X159084523Y-85457419D02*
X158655952Y-86457419D01*
X154532142Y-82762180D02*
X154484523Y-82809800D01*
X154484523Y-82809800D02*
X154341666Y-82857419D01*
X154341666Y-82857419D02*
X154246428Y-82857419D01*
X154246428Y-82857419D02*
X154103571Y-82809800D01*
X154103571Y-82809800D02*
X154008333Y-82714561D01*
X154008333Y-82714561D02*
X153960714Y-82619323D01*
X153960714Y-82619323D02*
X153913095Y-82428847D01*
X153913095Y-82428847D02*
X153913095Y-82285990D01*
X153913095Y-82285990D02*
X153960714Y-82095514D01*
X153960714Y-82095514D02*
X154008333Y-82000276D01*
X154008333Y-82000276D02*
X154103571Y-81905038D01*
X154103571Y-81905038D02*
X154246428Y-81857419D01*
X154246428Y-81857419D02*
X154341666Y-81857419D01*
X154341666Y-81857419D02*
X154484523Y-81905038D01*
X154484523Y-81905038D02*
X154532142Y-81952657D01*
X155484523Y-82857419D02*
X154913095Y-82857419D01*
X155198809Y-82857419D02*
X155198809Y-81857419D01*
X155198809Y-81857419D02*
X155103571Y-82000276D01*
X155103571Y-82000276D02*
X155008333Y-82095514D01*
X155008333Y-82095514D02*
X154913095Y-82143133D01*
X156436904Y-82857419D02*
X155865476Y-82857419D01*
X156151190Y-82857419D02*
X156151190Y-81857419D01*
X156151190Y-81857419D02*
X156055952Y-82000276D01*
X156055952Y-82000276D02*
X155960714Y-82095514D01*
X155960714Y-82095514D02*
X155865476Y-82143133D01*
X135608333Y-109982419D02*
X135275000Y-109506228D01*
X135036905Y-109982419D02*
X135036905Y-108982419D01*
X135036905Y-108982419D02*
X135417857Y-108982419D01*
X135417857Y-108982419D02*
X135513095Y-109030038D01*
X135513095Y-109030038D02*
X135560714Y-109077657D01*
X135560714Y-109077657D02*
X135608333Y-109172895D01*
X135608333Y-109172895D02*
X135608333Y-109315752D01*
X135608333Y-109315752D02*
X135560714Y-109410990D01*
X135560714Y-109410990D02*
X135513095Y-109458609D01*
X135513095Y-109458609D02*
X135417857Y-109506228D01*
X135417857Y-109506228D02*
X135036905Y-109506228D01*
X135989286Y-109077657D02*
X136036905Y-109030038D01*
X136036905Y-109030038D02*
X136132143Y-108982419D01*
X136132143Y-108982419D02*
X136370238Y-108982419D01*
X136370238Y-108982419D02*
X136465476Y-109030038D01*
X136465476Y-109030038D02*
X136513095Y-109077657D01*
X136513095Y-109077657D02*
X136560714Y-109172895D01*
X136560714Y-109172895D02*
X136560714Y-109268133D01*
X136560714Y-109268133D02*
X136513095Y-109410990D01*
X136513095Y-109410990D02*
X135941667Y-109982419D01*
X135941667Y-109982419D02*
X136560714Y-109982419D01*
X157132142Y-84562180D02*
X157084523Y-84609800D01*
X157084523Y-84609800D02*
X156941666Y-84657419D01*
X156941666Y-84657419D02*
X156846428Y-84657419D01*
X156846428Y-84657419D02*
X156703571Y-84609800D01*
X156703571Y-84609800D02*
X156608333Y-84514561D01*
X156608333Y-84514561D02*
X156560714Y-84419323D01*
X156560714Y-84419323D02*
X156513095Y-84228847D01*
X156513095Y-84228847D02*
X156513095Y-84085990D01*
X156513095Y-84085990D02*
X156560714Y-83895514D01*
X156560714Y-83895514D02*
X156608333Y-83800276D01*
X156608333Y-83800276D02*
X156703571Y-83705038D01*
X156703571Y-83705038D02*
X156846428Y-83657419D01*
X156846428Y-83657419D02*
X156941666Y-83657419D01*
X156941666Y-83657419D02*
X157084523Y-83705038D01*
X157084523Y-83705038D02*
X157132142Y-83752657D01*
X158084523Y-84657419D02*
X157513095Y-84657419D01*
X157798809Y-84657419D02*
X157798809Y-83657419D01*
X157798809Y-83657419D02*
X157703571Y-83800276D01*
X157703571Y-83800276D02*
X157608333Y-83895514D01*
X157608333Y-83895514D02*
X157513095Y-83943133D01*
X158941666Y-83657419D02*
X158751190Y-83657419D01*
X158751190Y-83657419D02*
X158655952Y-83705038D01*
X158655952Y-83705038D02*
X158608333Y-83752657D01*
X158608333Y-83752657D02*
X158513095Y-83895514D01*
X158513095Y-83895514D02*
X158465476Y-84085990D01*
X158465476Y-84085990D02*
X158465476Y-84466942D01*
X158465476Y-84466942D02*
X158513095Y-84562180D01*
X158513095Y-84562180D02*
X158560714Y-84609800D01*
X158560714Y-84609800D02*
X158655952Y-84657419D01*
X158655952Y-84657419D02*
X158846428Y-84657419D01*
X158846428Y-84657419D02*
X158941666Y-84609800D01*
X158941666Y-84609800D02*
X158989285Y-84562180D01*
X158989285Y-84562180D02*
X159036904Y-84466942D01*
X159036904Y-84466942D02*
X159036904Y-84228847D01*
X159036904Y-84228847D02*
X158989285Y-84133609D01*
X158989285Y-84133609D02*
X158941666Y-84085990D01*
X158941666Y-84085990D02*
X158846428Y-84038371D01*
X158846428Y-84038371D02*
X158655952Y-84038371D01*
X158655952Y-84038371D02*
X158560714Y-84085990D01*
X158560714Y-84085990D02*
X158513095Y-84133609D01*
X158513095Y-84133609D02*
X158465476Y-84228847D01*
X135608333Y-113582419D02*
X135275000Y-113106228D01*
X135036905Y-113582419D02*
X135036905Y-112582419D01*
X135036905Y-112582419D02*
X135417857Y-112582419D01*
X135417857Y-112582419D02*
X135513095Y-112630038D01*
X135513095Y-112630038D02*
X135560714Y-112677657D01*
X135560714Y-112677657D02*
X135608333Y-112772895D01*
X135608333Y-112772895D02*
X135608333Y-112915752D01*
X135608333Y-112915752D02*
X135560714Y-113010990D01*
X135560714Y-113010990D02*
X135513095Y-113058609D01*
X135513095Y-113058609D02*
X135417857Y-113106228D01*
X135417857Y-113106228D02*
X135036905Y-113106228D01*
X136465476Y-112915752D02*
X136465476Y-113582419D01*
X136227381Y-112534800D02*
X135989286Y-113249085D01*
X135989286Y-113249085D02*
X136608333Y-113249085D01*
X157132142Y-88162180D02*
X157084523Y-88209800D01*
X157084523Y-88209800D02*
X156941666Y-88257419D01*
X156941666Y-88257419D02*
X156846428Y-88257419D01*
X156846428Y-88257419D02*
X156703571Y-88209800D01*
X156703571Y-88209800D02*
X156608333Y-88114561D01*
X156608333Y-88114561D02*
X156560714Y-88019323D01*
X156560714Y-88019323D02*
X156513095Y-87828847D01*
X156513095Y-87828847D02*
X156513095Y-87685990D01*
X156513095Y-87685990D02*
X156560714Y-87495514D01*
X156560714Y-87495514D02*
X156608333Y-87400276D01*
X156608333Y-87400276D02*
X156703571Y-87305038D01*
X156703571Y-87305038D02*
X156846428Y-87257419D01*
X156846428Y-87257419D02*
X156941666Y-87257419D01*
X156941666Y-87257419D02*
X157084523Y-87305038D01*
X157084523Y-87305038D02*
X157132142Y-87352657D01*
X158084523Y-88257419D02*
X157513095Y-88257419D01*
X157798809Y-88257419D02*
X157798809Y-87257419D01*
X157798809Y-87257419D02*
X157703571Y-87400276D01*
X157703571Y-87400276D02*
X157608333Y-87495514D01*
X157608333Y-87495514D02*
X157513095Y-87543133D01*
X158655952Y-87685990D02*
X158560714Y-87638371D01*
X158560714Y-87638371D02*
X158513095Y-87590752D01*
X158513095Y-87590752D02*
X158465476Y-87495514D01*
X158465476Y-87495514D02*
X158465476Y-87447895D01*
X158465476Y-87447895D02*
X158513095Y-87352657D01*
X158513095Y-87352657D02*
X158560714Y-87305038D01*
X158560714Y-87305038D02*
X158655952Y-87257419D01*
X158655952Y-87257419D02*
X158846428Y-87257419D01*
X158846428Y-87257419D02*
X158941666Y-87305038D01*
X158941666Y-87305038D02*
X158989285Y-87352657D01*
X158989285Y-87352657D02*
X159036904Y-87447895D01*
X159036904Y-87447895D02*
X159036904Y-87495514D01*
X159036904Y-87495514D02*
X158989285Y-87590752D01*
X158989285Y-87590752D02*
X158941666Y-87638371D01*
X158941666Y-87638371D02*
X158846428Y-87685990D01*
X158846428Y-87685990D02*
X158655952Y-87685990D01*
X158655952Y-87685990D02*
X158560714Y-87733609D01*
X158560714Y-87733609D02*
X158513095Y-87781228D01*
X158513095Y-87781228D02*
X158465476Y-87876466D01*
X158465476Y-87876466D02*
X158465476Y-88066942D01*
X158465476Y-88066942D02*
X158513095Y-88162180D01*
X158513095Y-88162180D02*
X158560714Y-88209800D01*
X158560714Y-88209800D02*
X158655952Y-88257419D01*
X158655952Y-88257419D02*
X158846428Y-88257419D01*
X158846428Y-88257419D02*
X158941666Y-88209800D01*
X158941666Y-88209800D02*
X158989285Y-88162180D01*
X158989285Y-88162180D02*
X159036904Y-88066942D01*
X159036904Y-88066942D02*
X159036904Y-87876466D01*
X159036904Y-87876466D02*
X158989285Y-87781228D01*
X158989285Y-87781228D02*
X158941666Y-87733609D01*
X158941666Y-87733609D02*
X158846428Y-87685990D01*
D11*
X137688095Y-76354819D02*
X137688095Y-75354819D01*
X137688095Y-75831009D02*
X138259523Y-75831009D01*
X138259523Y-76354819D02*
X138259523Y-75354819D01*
X138688095Y-75450057D02*
X138735714Y-75402438D01*
X138735714Y-75402438D02*
X138830952Y-75354819D01*
X138830952Y-75354819D02*
X139069047Y-75354819D01*
X139069047Y-75354819D02*
X139164285Y-75402438D01*
X139164285Y-75402438D02*
X139211904Y-75450057D01*
X139211904Y-75450057D02*
X139259523Y-75545295D01*
X139259523Y-75545295D02*
X139259523Y-75640533D01*
X139259523Y-75640533D02*
X139211904Y-75783390D01*
X139211904Y-75783390D02*
X138640476Y-76354819D01*
X138640476Y-76354819D02*
X139259523Y-76354819D01*
D10*
X154532142Y-86362180D02*
X154484523Y-86409800D01*
X154484523Y-86409800D02*
X154341666Y-86457419D01*
X154341666Y-86457419D02*
X154246428Y-86457419D01*
X154246428Y-86457419D02*
X154103571Y-86409800D01*
X154103571Y-86409800D02*
X154008333Y-86314561D01*
X154008333Y-86314561D02*
X153960714Y-86219323D01*
X153960714Y-86219323D02*
X153913095Y-86028847D01*
X153913095Y-86028847D02*
X153913095Y-85885990D01*
X153913095Y-85885990D02*
X153960714Y-85695514D01*
X153960714Y-85695514D02*
X154008333Y-85600276D01*
X154008333Y-85600276D02*
X154103571Y-85505038D01*
X154103571Y-85505038D02*
X154246428Y-85457419D01*
X154246428Y-85457419D02*
X154341666Y-85457419D01*
X154341666Y-85457419D02*
X154484523Y-85505038D01*
X154484523Y-85505038D02*
X154532142Y-85552657D01*
X155484523Y-86457419D02*
X154913095Y-86457419D01*
X155198809Y-86457419D02*
X155198809Y-85457419D01*
X155198809Y-85457419D02*
X155103571Y-85600276D01*
X155103571Y-85600276D02*
X155008333Y-85695514D01*
X155008333Y-85695514D02*
X154913095Y-85743133D01*
X155817857Y-85457419D02*
X156436904Y-85457419D01*
X156436904Y-85457419D02*
X156103571Y-85838371D01*
X156103571Y-85838371D02*
X156246428Y-85838371D01*
X156246428Y-85838371D02*
X156341666Y-85885990D01*
X156341666Y-85885990D02*
X156389285Y-85933609D01*
X156389285Y-85933609D02*
X156436904Y-86028847D01*
X156436904Y-86028847D02*
X156436904Y-86266942D01*
X156436904Y-86266942D02*
X156389285Y-86362180D01*
X156389285Y-86362180D02*
X156341666Y-86409800D01*
X156341666Y-86409800D02*
X156246428Y-86457419D01*
X156246428Y-86457419D02*
X155960714Y-86457419D01*
X155960714Y-86457419D02*
X155865476Y-86409800D01*
X155865476Y-86409800D02*
X155817857Y-86362180D01*
X135608333Y-108182419D02*
X135275000Y-107706228D01*
X135036905Y-108182419D02*
X135036905Y-107182419D01*
X135036905Y-107182419D02*
X135417857Y-107182419D01*
X135417857Y-107182419D02*
X135513095Y-107230038D01*
X135513095Y-107230038D02*
X135560714Y-107277657D01*
X135560714Y-107277657D02*
X135608333Y-107372895D01*
X135608333Y-107372895D02*
X135608333Y-107515752D01*
X135608333Y-107515752D02*
X135560714Y-107610990D01*
X135560714Y-107610990D02*
X135513095Y-107658609D01*
X135513095Y-107658609D02*
X135417857Y-107706228D01*
X135417857Y-107706228D02*
X135036905Y-107706228D01*
X136560714Y-108182419D02*
X135989286Y-108182419D01*
X136275000Y-108182419D02*
X136275000Y-107182419D01*
X136275000Y-107182419D02*
X136179762Y-107325276D01*
X136179762Y-107325276D02*
X136084524Y-107420514D01*
X136084524Y-107420514D02*
X135989286Y-107468133D01*
X167258333Y-107037180D02*
X167210714Y-107084800D01*
X167210714Y-107084800D02*
X167067857Y-107132419D01*
X167067857Y-107132419D02*
X166972619Y-107132419D01*
X166972619Y-107132419D02*
X166829762Y-107084800D01*
X166829762Y-107084800D02*
X166734524Y-106989561D01*
X166734524Y-106989561D02*
X166686905Y-106894323D01*
X166686905Y-106894323D02*
X166639286Y-106703847D01*
X166639286Y-106703847D02*
X166639286Y-106560990D01*
X166639286Y-106560990D02*
X166686905Y-106370514D01*
X166686905Y-106370514D02*
X166734524Y-106275276D01*
X166734524Y-106275276D02*
X166829762Y-106180038D01*
X166829762Y-106180038D02*
X166972619Y-106132419D01*
X166972619Y-106132419D02*
X167067857Y-106132419D01*
X167067857Y-106132419D02*
X167210714Y-106180038D01*
X167210714Y-106180038D02*
X167258333Y-106227657D01*
X168163095Y-106132419D02*
X167686905Y-106132419D01*
X167686905Y-106132419D02*
X167639286Y-106608609D01*
X167639286Y-106608609D02*
X167686905Y-106560990D01*
X167686905Y-106560990D02*
X167782143Y-106513371D01*
X167782143Y-106513371D02*
X168020238Y-106513371D01*
X168020238Y-106513371D02*
X168115476Y-106560990D01*
X168115476Y-106560990D02*
X168163095Y-106608609D01*
X168163095Y-106608609D02*
X168210714Y-106703847D01*
X168210714Y-106703847D02*
X168210714Y-106941942D01*
X168210714Y-106941942D02*
X168163095Y-107037180D01*
X168163095Y-107037180D02*
X168115476Y-107084800D01*
X168115476Y-107084800D02*
X168020238Y-107132419D01*
X168020238Y-107132419D02*
X167782143Y-107132419D01*
X167782143Y-107132419D02*
X167686905Y-107084800D01*
X167686905Y-107084800D02*
X167639286Y-107037180D01*
X154532142Y-84562180D02*
X154484523Y-84609800D01*
X154484523Y-84609800D02*
X154341666Y-84657419D01*
X154341666Y-84657419D02*
X154246428Y-84657419D01*
X154246428Y-84657419D02*
X154103571Y-84609800D01*
X154103571Y-84609800D02*
X154008333Y-84514561D01*
X154008333Y-84514561D02*
X153960714Y-84419323D01*
X153960714Y-84419323D02*
X153913095Y-84228847D01*
X153913095Y-84228847D02*
X153913095Y-84085990D01*
X153913095Y-84085990D02*
X153960714Y-83895514D01*
X153960714Y-83895514D02*
X154008333Y-83800276D01*
X154008333Y-83800276D02*
X154103571Y-83705038D01*
X154103571Y-83705038D02*
X154246428Y-83657419D01*
X154246428Y-83657419D02*
X154341666Y-83657419D01*
X154341666Y-83657419D02*
X154484523Y-83705038D01*
X154484523Y-83705038D02*
X154532142Y-83752657D01*
X155484523Y-84657419D02*
X154913095Y-84657419D01*
X155198809Y-84657419D02*
X155198809Y-83657419D01*
X155198809Y-83657419D02*
X155103571Y-83800276D01*
X155103571Y-83800276D02*
X155008333Y-83895514D01*
X155008333Y-83895514D02*
X154913095Y-83943133D01*
X155865476Y-83752657D02*
X155913095Y-83705038D01*
X155913095Y-83705038D02*
X156008333Y-83657419D01*
X156008333Y-83657419D02*
X156246428Y-83657419D01*
X156246428Y-83657419D02*
X156341666Y-83705038D01*
X156341666Y-83705038D02*
X156389285Y-83752657D01*
X156389285Y-83752657D02*
X156436904Y-83847895D01*
X156436904Y-83847895D02*
X156436904Y-83943133D01*
X156436904Y-83943133D02*
X156389285Y-84085990D01*
X156389285Y-84085990D02*
X155817857Y-84657419D01*
X155817857Y-84657419D02*
X156436904Y-84657419D01*
D11*
X159416666Y-91054819D02*
X159416666Y-91769104D01*
X159416666Y-91769104D02*
X159369047Y-91911961D01*
X159369047Y-91911961D02*
X159273809Y-92007200D01*
X159273809Y-92007200D02*
X159130952Y-92054819D01*
X159130952Y-92054819D02*
X159035714Y-92054819D01*
X160416666Y-92054819D02*
X159845238Y-92054819D01*
X160130952Y-92054819D02*
X160130952Y-91054819D01*
X160130952Y-91054819D02*
X160035714Y-91197676D01*
X160035714Y-91197676D02*
X159940476Y-91292914D01*
X159940476Y-91292914D02*
X159845238Y-91340533D01*
X143043809Y-107418628D02*
X143043809Y-107894819D01*
X142710476Y-106894819D02*
X143043809Y-107418628D01*
X143043809Y-107418628D02*
X143377142Y-106894819D01*
X144234285Y-107894819D02*
X143662857Y-107894819D01*
X143948571Y-107894819D02*
X143948571Y-106894819D01*
X143948571Y-106894819D02*
X143853333Y-107037676D01*
X143853333Y-107037676D02*
X143758095Y-107132914D01*
X143758095Y-107132914D02*
X143662857Y-107180533D01*
D10*
X159732142Y-82762180D02*
X159684523Y-82809800D01*
X159684523Y-82809800D02*
X159541666Y-82857419D01*
X159541666Y-82857419D02*
X159446428Y-82857419D01*
X159446428Y-82857419D02*
X159303571Y-82809800D01*
X159303571Y-82809800D02*
X159208333Y-82714561D01*
X159208333Y-82714561D02*
X159160714Y-82619323D01*
X159160714Y-82619323D02*
X159113095Y-82428847D01*
X159113095Y-82428847D02*
X159113095Y-82285990D01*
X159113095Y-82285990D02*
X159160714Y-82095514D01*
X159160714Y-82095514D02*
X159208333Y-82000276D01*
X159208333Y-82000276D02*
X159303571Y-81905038D01*
X159303571Y-81905038D02*
X159446428Y-81857419D01*
X159446428Y-81857419D02*
X159541666Y-81857419D01*
X159541666Y-81857419D02*
X159684523Y-81905038D01*
X159684523Y-81905038D02*
X159732142Y-81952657D01*
X160684523Y-82857419D02*
X160113095Y-82857419D01*
X160398809Y-82857419D02*
X160398809Y-81857419D01*
X160398809Y-81857419D02*
X160303571Y-82000276D01*
X160303571Y-82000276D02*
X160208333Y-82095514D01*
X160208333Y-82095514D02*
X160113095Y-82143133D01*
X161160714Y-82857419D02*
X161351190Y-82857419D01*
X161351190Y-82857419D02*
X161446428Y-82809800D01*
X161446428Y-82809800D02*
X161494047Y-82762180D01*
X161494047Y-82762180D02*
X161589285Y-82619323D01*
X161589285Y-82619323D02*
X161636904Y-82428847D01*
X161636904Y-82428847D02*
X161636904Y-82047895D01*
X161636904Y-82047895D02*
X161589285Y-81952657D01*
X161589285Y-81952657D02*
X161541666Y-81905038D01*
X161541666Y-81905038D02*
X161446428Y-81857419D01*
X161446428Y-81857419D02*
X161255952Y-81857419D01*
X161255952Y-81857419D02*
X161160714Y-81905038D01*
X161160714Y-81905038D02*
X161113095Y-81952657D01*
X161113095Y-81952657D02*
X161065476Y-82047895D01*
X161065476Y-82047895D02*
X161065476Y-82285990D01*
X161065476Y-82285990D02*
X161113095Y-82381228D01*
X161113095Y-82381228D02*
X161160714Y-82428847D01*
X161160714Y-82428847D02*
X161255952Y-82476466D01*
X161255952Y-82476466D02*
X161446428Y-82476466D01*
X161446428Y-82476466D02*
X161541666Y-82428847D01*
X161541666Y-82428847D02*
X161589285Y-82381228D01*
X161589285Y-82381228D02*
X161636904Y-82285990D01*
X135608333Y-103912180D02*
X135560714Y-103959800D01*
X135560714Y-103959800D02*
X135417857Y-104007419D01*
X135417857Y-104007419D02*
X135322619Y-104007419D01*
X135322619Y-104007419D02*
X135179762Y-103959800D01*
X135179762Y-103959800D02*
X135084524Y-103864561D01*
X135084524Y-103864561D02*
X135036905Y-103769323D01*
X135036905Y-103769323D02*
X134989286Y-103578847D01*
X134989286Y-103578847D02*
X134989286Y-103435990D01*
X134989286Y-103435990D02*
X135036905Y-103245514D01*
X135036905Y-103245514D02*
X135084524Y-103150276D01*
X135084524Y-103150276D02*
X135179762Y-103055038D01*
X135179762Y-103055038D02*
X135322619Y-103007419D01*
X135322619Y-103007419D02*
X135417857Y-103007419D01*
X135417857Y-103007419D02*
X135560714Y-103055038D01*
X135560714Y-103055038D02*
X135608333Y-103102657D01*
X135941667Y-103007419D02*
X136608333Y-103007419D01*
X136608333Y-103007419D02*
X136179762Y-104007419D01*
D11*
X167438095Y-91229819D02*
X167438095Y-92039342D01*
X167438095Y-92039342D02*
X167485714Y-92134580D01*
X167485714Y-92134580D02*
X167533333Y-92182200D01*
X167533333Y-92182200D02*
X167628571Y-92229819D01*
X167628571Y-92229819D02*
X167819047Y-92229819D01*
X167819047Y-92229819D02*
X167914285Y-92182200D01*
X167914285Y-92182200D02*
X167961904Y-92134580D01*
X167961904Y-92134580D02*
X168009523Y-92039342D01*
X168009523Y-92039342D02*
X168009523Y-91229819D01*
X169009523Y-92229819D02*
X168438095Y-92229819D01*
X168723809Y-92229819D02*
X168723809Y-91229819D01*
X168723809Y-91229819D02*
X168628571Y-91372676D01*
X168628571Y-91372676D02*
X168533333Y-91467914D01*
X168533333Y-91467914D02*
X168438095Y-91515533D01*
D10*
X135608333Y-111782419D02*
X135275000Y-111306228D01*
X135036905Y-111782419D02*
X135036905Y-110782419D01*
X135036905Y-110782419D02*
X135417857Y-110782419D01*
X135417857Y-110782419D02*
X135513095Y-110830038D01*
X135513095Y-110830038D02*
X135560714Y-110877657D01*
X135560714Y-110877657D02*
X135608333Y-110972895D01*
X135608333Y-110972895D02*
X135608333Y-111115752D01*
X135608333Y-111115752D02*
X135560714Y-111210990D01*
X135560714Y-111210990D02*
X135513095Y-111258609D01*
X135513095Y-111258609D02*
X135417857Y-111306228D01*
X135417857Y-111306228D02*
X135036905Y-111306228D01*
X135941667Y-110782419D02*
X136560714Y-110782419D01*
X136560714Y-110782419D02*
X136227381Y-111163371D01*
X136227381Y-111163371D02*
X136370238Y-111163371D01*
X136370238Y-111163371D02*
X136465476Y-111210990D01*
X136465476Y-111210990D02*
X136513095Y-111258609D01*
X136513095Y-111258609D02*
X136560714Y-111353847D01*
X136560714Y-111353847D02*
X136560714Y-111591942D01*
X136560714Y-111591942D02*
X136513095Y-111687180D01*
X136513095Y-111687180D02*
X136465476Y-111734800D01*
X136465476Y-111734800D02*
X136370238Y-111782419D01*
X136370238Y-111782419D02*
X136084524Y-111782419D01*
X136084524Y-111782419D02*
X135989286Y-111734800D01*
X135989286Y-111734800D02*
X135941667Y-111687180D01*
X160208333Y-85232419D02*
X159875000Y-84756228D01*
X159636905Y-85232419D02*
X159636905Y-84232419D01*
X159636905Y-84232419D02*
X160017857Y-84232419D01*
X160017857Y-84232419D02*
X160113095Y-84280038D01*
X160113095Y-84280038D02*
X160160714Y-84327657D01*
X160160714Y-84327657D02*
X160208333Y-84422895D01*
X160208333Y-84422895D02*
X160208333Y-84565752D01*
X160208333Y-84565752D02*
X160160714Y-84660990D01*
X160160714Y-84660990D02*
X160113095Y-84708609D01*
X160113095Y-84708609D02*
X160017857Y-84756228D01*
X160017857Y-84756228D02*
X159636905Y-84756228D01*
X161113095Y-84232419D02*
X160636905Y-84232419D01*
X160636905Y-84232419D02*
X160589286Y-84708609D01*
X160589286Y-84708609D02*
X160636905Y-84660990D01*
X160636905Y-84660990D02*
X160732143Y-84613371D01*
X160732143Y-84613371D02*
X160970238Y-84613371D01*
X160970238Y-84613371D02*
X161065476Y-84660990D01*
X161065476Y-84660990D02*
X161113095Y-84708609D01*
X161113095Y-84708609D02*
X161160714Y-84803847D01*
X161160714Y-84803847D02*
X161160714Y-85041942D01*
X161160714Y-85041942D02*
X161113095Y-85137180D01*
X161113095Y-85137180D02*
X161065476Y-85184800D01*
X161065476Y-85184800D02*
X160970238Y-85232419D01*
X160970238Y-85232419D02*
X160732143Y-85232419D01*
X160732143Y-85232419D02*
X160636905Y-85184800D01*
X160636905Y-85184800D02*
X160589286Y-85137180D01*
X135608333Y-102112180D02*
X135560714Y-102159800D01*
X135560714Y-102159800D02*
X135417857Y-102207419D01*
X135417857Y-102207419D02*
X135322619Y-102207419D01*
X135322619Y-102207419D02*
X135179762Y-102159800D01*
X135179762Y-102159800D02*
X135084524Y-102064561D01*
X135084524Y-102064561D02*
X135036905Y-101969323D01*
X135036905Y-101969323D02*
X134989286Y-101778847D01*
X134989286Y-101778847D02*
X134989286Y-101635990D01*
X134989286Y-101635990D02*
X135036905Y-101445514D01*
X135036905Y-101445514D02*
X135084524Y-101350276D01*
X135084524Y-101350276D02*
X135179762Y-101255038D01*
X135179762Y-101255038D02*
X135322619Y-101207419D01*
X135322619Y-101207419D02*
X135417857Y-101207419D01*
X135417857Y-101207419D02*
X135560714Y-101255038D01*
X135560714Y-101255038D02*
X135608333Y-101302657D01*
X136465476Y-101207419D02*
X136275000Y-101207419D01*
X136275000Y-101207419D02*
X136179762Y-101255038D01*
X136179762Y-101255038D02*
X136132143Y-101302657D01*
X136132143Y-101302657D02*
X136036905Y-101445514D01*
X136036905Y-101445514D02*
X135989286Y-101635990D01*
X135989286Y-101635990D02*
X135989286Y-102016942D01*
X135989286Y-102016942D02*
X136036905Y-102112180D01*
X136036905Y-102112180D02*
X136084524Y-102159800D01*
X136084524Y-102159800D02*
X136179762Y-102207419D01*
X136179762Y-102207419D02*
X136370238Y-102207419D01*
X136370238Y-102207419D02*
X136465476Y-102159800D01*
X136465476Y-102159800D02*
X136513095Y-102112180D01*
X136513095Y-102112180D02*
X136560714Y-102016942D01*
X136560714Y-102016942D02*
X136560714Y-101778847D01*
X136560714Y-101778847D02*
X136513095Y-101683609D01*
X136513095Y-101683609D02*
X136465476Y-101635990D01*
X136465476Y-101635990D02*
X136370238Y-101588371D01*
X136370238Y-101588371D02*
X136179762Y-101588371D01*
X136179762Y-101588371D02*
X136084524Y-101635990D01*
X136084524Y-101635990D02*
X136036905Y-101683609D01*
X136036905Y-101683609D02*
X135989286Y-101778847D01*
D11*
X137688095Y-84304819D02*
X137688095Y-83304819D01*
X137688095Y-83781009D02*
X138259523Y-83781009D01*
X138259523Y-84304819D02*
X138259523Y-83304819D01*
X138640476Y-83304819D02*
X139259523Y-83304819D01*
X139259523Y-83304819D02*
X138926190Y-83685771D01*
X138926190Y-83685771D02*
X139069047Y-83685771D01*
X139069047Y-83685771D02*
X139164285Y-83733390D01*
X139164285Y-83733390D02*
X139211904Y-83781009D01*
X139211904Y-83781009D02*
X139259523Y-83876247D01*
X139259523Y-83876247D02*
X139259523Y-84114342D01*
X139259523Y-84114342D02*
X139211904Y-84209580D01*
X139211904Y-84209580D02*
X139164285Y-84257200D01*
X139164285Y-84257200D02*
X139069047Y-84304819D01*
X139069047Y-84304819D02*
X138783333Y-84304819D01*
X138783333Y-84304819D02*
X138688095Y-84257200D01*
X138688095Y-84257200D02*
X138640476Y-84209580D01*
X137688095Y-92254819D02*
X137688095Y-91254819D01*
X137688095Y-91731009D02*
X138259523Y-91731009D01*
X138259523Y-92254819D02*
X138259523Y-91254819D01*
X139164285Y-91588152D02*
X139164285Y-92254819D01*
X138926190Y-91207200D02*
X138688095Y-91921485D01*
X138688095Y-91921485D02*
X139307142Y-91921485D01*
D10*
X166808333Y-101212180D02*
X166760714Y-101259800D01*
X166760714Y-101259800D02*
X166617857Y-101307419D01*
X166617857Y-101307419D02*
X166522619Y-101307419D01*
X166522619Y-101307419D02*
X166379762Y-101259800D01*
X166379762Y-101259800D02*
X166284524Y-101164561D01*
X166284524Y-101164561D02*
X166236905Y-101069323D01*
X166236905Y-101069323D02*
X166189286Y-100878847D01*
X166189286Y-100878847D02*
X166189286Y-100735990D01*
X166189286Y-100735990D02*
X166236905Y-100545514D01*
X166236905Y-100545514D02*
X166284524Y-100450276D01*
X166284524Y-100450276D02*
X166379762Y-100355038D01*
X166379762Y-100355038D02*
X166522619Y-100307419D01*
X166522619Y-100307419D02*
X166617857Y-100307419D01*
X166617857Y-100307419D02*
X166760714Y-100355038D01*
X166760714Y-100355038D02*
X166808333Y-100402657D01*
X167189286Y-100402657D02*
X167236905Y-100355038D01*
X167236905Y-100355038D02*
X167332143Y-100307419D01*
X167332143Y-100307419D02*
X167570238Y-100307419D01*
X167570238Y-100307419D02*
X167665476Y-100355038D01*
X167665476Y-100355038D02*
X167713095Y-100402657D01*
X167713095Y-100402657D02*
X167760714Y-100497895D01*
X167760714Y-100497895D02*
X167760714Y-100593133D01*
X167760714Y-100593133D02*
X167713095Y-100735990D01*
X167713095Y-100735990D02*
X167141667Y-101307419D01*
X167141667Y-101307419D02*
X167760714Y-101307419D01*
D11*
X158666666Y-98504819D02*
X158666666Y-99219104D01*
X158666666Y-99219104D02*
X158619047Y-99361961D01*
X158619047Y-99361961D02*
X158523809Y-99457200D01*
X158523809Y-99457200D02*
X158380952Y-99504819D01*
X158380952Y-99504819D02*
X158285714Y-99504819D01*
X159095238Y-98600057D02*
X159142857Y-98552438D01*
X159142857Y-98552438D02*
X159238095Y-98504819D01*
X159238095Y-98504819D02*
X159476190Y-98504819D01*
X159476190Y-98504819D02*
X159571428Y-98552438D01*
X159571428Y-98552438D02*
X159619047Y-98600057D01*
X159619047Y-98600057D02*
X159666666Y-98695295D01*
X159666666Y-98695295D02*
X159666666Y-98790533D01*
X159666666Y-98790533D02*
X159619047Y-98933390D01*
X159619047Y-98933390D02*
X159047619Y-99504819D01*
X159047619Y-99504819D02*
X159666666Y-99504819D01*
X137688095Y-68404819D02*
X137688095Y-67404819D01*
X137688095Y-67881009D02*
X138259523Y-67881009D01*
X138259523Y-68404819D02*
X138259523Y-67404819D01*
X139259523Y-68404819D02*
X138688095Y-68404819D01*
X138973809Y-68404819D02*
X138973809Y-67404819D01*
X138973809Y-67404819D02*
X138878571Y-67547676D01*
X138878571Y-67547676D02*
X138783333Y-67642914D01*
X138783333Y-67642914D02*
X138688095Y-67690533D01*
D10*
X166808333Y-103012180D02*
X166760714Y-103059800D01*
X166760714Y-103059800D02*
X166617857Y-103107419D01*
X166617857Y-103107419D02*
X166522619Y-103107419D01*
X166522619Y-103107419D02*
X166379762Y-103059800D01*
X166379762Y-103059800D02*
X166284524Y-102964561D01*
X166284524Y-102964561D02*
X166236905Y-102869323D01*
X166236905Y-102869323D02*
X166189286Y-102678847D01*
X166189286Y-102678847D02*
X166189286Y-102535990D01*
X166189286Y-102535990D02*
X166236905Y-102345514D01*
X166236905Y-102345514D02*
X166284524Y-102250276D01*
X166284524Y-102250276D02*
X166379762Y-102155038D01*
X166379762Y-102155038D02*
X166522619Y-102107419D01*
X166522619Y-102107419D02*
X166617857Y-102107419D01*
X166617857Y-102107419D02*
X166760714Y-102155038D01*
X166760714Y-102155038D02*
X166808333Y-102202657D01*
X167665476Y-102440752D02*
X167665476Y-103107419D01*
X167427381Y-102059800D02*
X167189286Y-102774085D01*
X167189286Y-102774085D02*
X167808333Y-102774085D01*
D11*
X139893333Y-107799580D02*
X139845714Y-107847200D01*
X139845714Y-107847200D02*
X139702857Y-107894819D01*
X139702857Y-107894819D02*
X139607619Y-107894819D01*
X139607619Y-107894819D02*
X139464762Y-107847200D01*
X139464762Y-107847200D02*
X139369524Y-107751961D01*
X139369524Y-107751961D02*
X139321905Y-107656723D01*
X139321905Y-107656723D02*
X139274286Y-107466247D01*
X139274286Y-107466247D02*
X139274286Y-107323390D01*
X139274286Y-107323390D02*
X139321905Y-107132914D01*
X139321905Y-107132914D02*
X139369524Y-107037676D01*
X139369524Y-107037676D02*
X139464762Y-106942438D01*
X139464762Y-106942438D02*
X139607619Y-106894819D01*
X139607619Y-106894819D02*
X139702857Y-106894819D01*
X139702857Y-106894819D02*
X139845714Y-106942438D01*
X139845714Y-106942438D02*
X139893333Y-106990057D01*
X140369524Y-107894819D02*
X140560000Y-107894819D01*
X140560000Y-107894819D02*
X140655238Y-107847200D01*
X140655238Y-107847200D02*
X140702857Y-107799580D01*
X140702857Y-107799580D02*
X140798095Y-107656723D01*
X140798095Y-107656723D02*
X140845714Y-107466247D01*
X140845714Y-107466247D02*
X140845714Y-107085295D01*
X140845714Y-107085295D02*
X140798095Y-106990057D01*
X140798095Y-106990057D02*
X140750476Y-106942438D01*
X140750476Y-106942438D02*
X140655238Y-106894819D01*
X140655238Y-106894819D02*
X140464762Y-106894819D01*
X140464762Y-106894819D02*
X140369524Y-106942438D01*
X140369524Y-106942438D02*
X140321905Y-106990057D01*
X140321905Y-106990057D02*
X140274286Y-107085295D01*
X140274286Y-107085295D02*
X140274286Y-107323390D01*
X140274286Y-107323390D02*
X140321905Y-107418628D01*
X140321905Y-107418628D02*
X140369524Y-107466247D01*
X140369524Y-107466247D02*
X140464762Y-107513866D01*
X140464762Y-107513866D02*
X140655238Y-107513866D01*
X140655238Y-107513866D02*
X140750476Y-107466247D01*
X140750476Y-107466247D02*
X140798095Y-107418628D01*
X140798095Y-107418628D02*
X140845714Y-107323390D01*
X139417142Y-109769580D02*
X139369523Y-109817200D01*
X139369523Y-109817200D02*
X139226666Y-109864819D01*
X139226666Y-109864819D02*
X139131428Y-109864819D01*
X139131428Y-109864819D02*
X138988571Y-109817200D01*
X138988571Y-109817200D02*
X138893333Y-109721961D01*
X138893333Y-109721961D02*
X138845714Y-109626723D01*
X138845714Y-109626723D02*
X138798095Y-109436247D01*
X138798095Y-109436247D02*
X138798095Y-109293390D01*
X138798095Y-109293390D02*
X138845714Y-109102914D01*
X138845714Y-109102914D02*
X138893333Y-109007676D01*
X138893333Y-109007676D02*
X138988571Y-108912438D01*
X138988571Y-108912438D02*
X139131428Y-108864819D01*
X139131428Y-108864819D02*
X139226666Y-108864819D01*
X139226666Y-108864819D02*
X139369523Y-108912438D01*
X139369523Y-108912438D02*
X139417142Y-108960057D01*
X140369523Y-109864819D02*
X139798095Y-109864819D01*
X140083809Y-109864819D02*
X140083809Y-108864819D01*
X140083809Y-108864819D02*
X139988571Y-109007676D01*
X139988571Y-109007676D02*
X139893333Y-109102914D01*
X139893333Y-109102914D02*
X139798095Y-109150533D01*
X140988571Y-108864819D02*
X141083809Y-108864819D01*
X141083809Y-108864819D02*
X141179047Y-108912438D01*
X141179047Y-108912438D02*
X141226666Y-108960057D01*
X141226666Y-108960057D02*
X141274285Y-109055295D01*
X141274285Y-109055295D02*
X141321904Y-109245771D01*
X141321904Y-109245771D02*
X141321904Y-109483866D01*
X141321904Y-109483866D02*
X141274285Y-109674342D01*
X141274285Y-109674342D02*
X141226666Y-109769580D01*
X141226666Y-109769580D02*
X141179047Y-109817200D01*
X141179047Y-109817200D02*
X141083809Y-109864819D01*
X141083809Y-109864819D02*
X140988571Y-109864819D01*
X140988571Y-109864819D02*
X140893333Y-109817200D01*
X140893333Y-109817200D02*
X140845714Y-109769580D01*
X140845714Y-109769580D02*
X140798095Y-109674342D01*
X140798095Y-109674342D02*
X140750476Y-109483866D01*
X140750476Y-109483866D02*
X140750476Y-109245771D01*
X140750476Y-109245771D02*
X140798095Y-109055295D01*
X140798095Y-109055295D02*
X140845714Y-108960057D01*
X140845714Y-108960057D02*
X140893333Y-108912438D01*
X140893333Y-108912438D02*
X140988571Y-108864819D01*
D10*
X167258333Y-104787180D02*
X167210714Y-104834800D01*
X167210714Y-104834800D02*
X167067857Y-104882419D01*
X167067857Y-104882419D02*
X166972619Y-104882419D01*
X166972619Y-104882419D02*
X166829762Y-104834800D01*
X166829762Y-104834800D02*
X166734524Y-104739561D01*
X166734524Y-104739561D02*
X166686905Y-104644323D01*
X166686905Y-104644323D02*
X166639286Y-104453847D01*
X166639286Y-104453847D02*
X166639286Y-104310990D01*
X166639286Y-104310990D02*
X166686905Y-104120514D01*
X166686905Y-104120514D02*
X166734524Y-104025276D01*
X166734524Y-104025276D02*
X166829762Y-103930038D01*
X166829762Y-103930038D02*
X166972619Y-103882419D01*
X166972619Y-103882419D02*
X167067857Y-103882419D01*
X167067857Y-103882419D02*
X167210714Y-103930038D01*
X167210714Y-103930038D02*
X167258333Y-103977657D01*
X167591667Y-103882419D02*
X168210714Y-103882419D01*
X168210714Y-103882419D02*
X167877381Y-104263371D01*
X167877381Y-104263371D02*
X168020238Y-104263371D01*
X168020238Y-104263371D02*
X168115476Y-104310990D01*
X168115476Y-104310990D02*
X168163095Y-104358609D01*
X168163095Y-104358609D02*
X168210714Y-104453847D01*
X168210714Y-104453847D02*
X168210714Y-104691942D01*
X168210714Y-104691942D02*
X168163095Y-104787180D01*
X168163095Y-104787180D02*
X168115476Y-104834800D01*
X168115476Y-104834800D02*
X168020238Y-104882419D01*
X168020238Y-104882419D02*
X167734524Y-104882419D01*
X167734524Y-104882419D02*
X167639286Y-104834800D01*
X167639286Y-104834800D02*
X167591667Y-104787180D01*
%TO.C,U3*%
X156050000Y-70300000D02*
X156050000Y-71200000D01*
X156050000Y-70300000D02*
X156950000Y-70300000D01*
X156050000Y-80400000D02*
X156050000Y-79500000D01*
X156050000Y-80400000D02*
X156950000Y-80400000D01*
X166150000Y-70300000D02*
X165250000Y-70300000D01*
X166150000Y-70300000D02*
X166150000Y-71200000D01*
X166150000Y-80400000D02*
X165250000Y-80400000D01*
X166150000Y-80400000D02*
X166150000Y-79500000D01*
D12*
X155525000Y-70850000D02*
G75*
G02*
X155275000Y-70850000I-125000J0D01*
G01*
X155275000Y-70850000D02*
G75*
G02*
X155525000Y-70850000I125000J0D01*
G01*
D13*
%TO.C,U2*%
X139535000Y-106855000D02*
X139535000Y-106595000D01*
X139535000Y-106855000D02*
X139795000Y-106855000D01*
X144955000Y-102835000D02*
X144695000Y-102835000D01*
X144955000Y-102835000D02*
X144955000Y-103095000D01*
X144955000Y-106855000D02*
X144695000Y-106855000D01*
X144955000Y-106855000D02*
X144955000Y-106595000D01*
D10*
X139535000Y-102835000D02*
X139175000Y-102835000D01*
X139535000Y-102475000D01*
X139535000Y-102835000D01*
G36*
X139535000Y-102835000D02*
G01*
X139175000Y-102835000D01*
X139535000Y-102475000D01*
X139535000Y-102835000D01*
G37*
D13*
%TO.C,J1*%
X154890000Y-93790000D02*
X156690000Y-93790000D01*
X154890000Y-95240000D02*
X154890000Y-93790000D01*
X164610000Y-93790000D02*
X162810000Y-93790000D01*
X164610000Y-95240000D02*
X164610000Y-93790000D01*
D14*
X156650000Y-93300000D02*
G75*
G02*
X156450000Y-93300000I-100000J0D01*
G01*
X156450000Y-93300000D02*
G75*
G02*
X156650000Y-93300000I100000J0D01*
G01*
D13*
%TO.C,Y1*%
X142260000Y-108380000D02*
X142260000Y-110100000D01*
X142260000Y-110100000D02*
X144780000Y-110100000D01*
X144780000Y-108380000D02*
X142260000Y-108380000D01*
%TO.C,U1*%
X167290000Y-92615000D02*
X169110000Y-92615000D01*
X167290000Y-92665000D02*
X167290000Y-92615000D01*
X167290000Y-95735000D02*
X167290000Y-95685000D01*
X169110000Y-92615000D02*
X169110000Y-92665000D01*
X169110000Y-93785000D02*
X169110000Y-94565000D01*
X169110000Y-95685000D02*
X169110000Y-95735000D01*
X169110000Y-95735000D02*
X167290000Y-95735000D01*
X166750000Y-92665000D02*
X166510000Y-92335000D01*
X166990000Y-92335000D01*
X166750000Y-92665000D01*
G36*
X166750000Y-92665000D02*
G01*
X166510000Y-92335000D01*
X166990000Y-92335000D01*
X166750000Y-92665000D01*
G37*
%TO.C,J2*%
D14*
X157200000Y-101950000D02*
G75*
G02*
X157000000Y-101950000I-100000J0D01*
G01*
X157000000Y-101950000D02*
G75*
G02*
X157200000Y-101950000I100000J0D01*
G01*
D13*
%TO.C,C9*%
X139952164Y-108240000D02*
X140167836Y-108240000D01*
X139952164Y-108960000D02*
X140167836Y-108960000D01*
%TO.C,C10*%
X139952164Y-110210000D02*
X140167836Y-110210000D01*
X139952164Y-110930000D02*
X140167836Y-110930000D01*
%TD*%
%LPC*%
D15*
%TO.C,C1*%
X166575000Y-100125000D03*
X167375000Y-100125000D03*
%TD*%
%TO.C,C14*%
X154775000Y-88875000D03*
X155575000Y-88875000D03*
%TD*%
D16*
%TO.C,TP1*%
X164904951Y-100004951D03*
%TD*%
D17*
%TO.C,R6*%
X159975000Y-87075000D03*
X160775000Y-87075000D03*
%TD*%
D15*
%TO.C,C15*%
X157375000Y-83475000D03*
X158175000Y-83475000D03*
%TD*%
D18*
%TO.C,U3*%
X155350000Y-71600000D03*
X155350000Y-72100000D03*
X155350000Y-72600000D03*
X155350000Y-73100000D03*
X155350000Y-73600000D03*
X155350000Y-74100000D03*
X155350000Y-74600000D03*
X155350000Y-75100000D03*
X155350000Y-75600000D03*
X155350000Y-76100000D03*
X155350000Y-76600000D03*
X155350000Y-77100000D03*
X155350000Y-77600000D03*
X155350000Y-78100000D03*
X155350000Y-78600000D03*
X155350000Y-79100000D03*
D19*
X157350000Y-81100000D03*
X157850000Y-81100000D03*
X158350000Y-81100000D03*
X158850000Y-81100000D03*
X159350000Y-81100000D03*
X159850000Y-81100000D03*
X160350000Y-81100000D03*
X160850000Y-81100000D03*
X161350000Y-81100000D03*
X161850000Y-81100000D03*
X162350000Y-81100000D03*
X162850000Y-81100000D03*
X163350000Y-81100000D03*
X163850000Y-81100000D03*
X164350000Y-81100000D03*
X164850000Y-81100000D03*
D18*
X166850000Y-79100000D03*
X166850000Y-78600000D03*
X166850000Y-78100000D03*
X166850000Y-77600000D03*
X166850000Y-77100000D03*
X166850000Y-76600000D03*
X166850000Y-76100000D03*
X166850000Y-75600000D03*
X166850000Y-75100000D03*
X166850000Y-74600000D03*
X166850000Y-74100000D03*
X166850000Y-73600000D03*
X166850000Y-73100000D03*
X166850000Y-72600000D03*
X166850000Y-72100000D03*
X166850000Y-71600000D03*
D19*
X164850000Y-69600000D03*
X164350000Y-69600000D03*
X163850000Y-69600000D03*
X163350000Y-69600000D03*
X162850000Y-69600000D03*
X162350000Y-69600000D03*
X161850000Y-69600000D03*
X161350000Y-69600000D03*
X160850000Y-69600000D03*
X160350000Y-69600000D03*
X159850000Y-69600000D03*
X159350000Y-69600000D03*
X158850000Y-69600000D03*
X158350000Y-69600000D03*
X157850000Y-69600000D03*
X157350000Y-69600000D03*
%TD*%
D15*
%TO.C,C8*%
X135375000Y-106425000D03*
X136175000Y-106425000D03*
%TD*%
D20*
%TO.C,U2*%
X139995000Y-103182500D03*
D21*
X139857500Y-104095000D03*
X139857500Y-104595000D03*
X139857500Y-105095000D03*
X139857500Y-105595000D03*
D20*
X139995000Y-106507500D03*
X140495000Y-106507500D03*
X140995000Y-106507500D03*
X141495000Y-106507500D03*
X141995000Y-106507500D03*
X142495000Y-106507500D03*
X142995000Y-106507500D03*
X143495000Y-106507500D03*
X143995000Y-106507500D03*
X144495000Y-106507500D03*
D21*
X144632500Y-105595000D03*
X144632500Y-105095000D03*
X144632500Y-104595000D03*
X144632500Y-104095000D03*
D20*
X144495000Y-103182500D03*
X143995000Y-103182500D03*
X143495000Y-103182500D03*
X142995000Y-103182500D03*
X142495000Y-103182500D03*
X141995000Y-103182500D03*
X141495000Y-103182500D03*
X140995000Y-103182500D03*
X140495000Y-103182500D03*
%TD*%
D22*
%TO.C,FD2*%
X144000000Y-72850000D03*
%TD*%
D15*
%TO.C,C17*%
X157375000Y-87075000D03*
X158175000Y-87075000D03*
%TD*%
%TO.C,C11*%
X154775000Y-83475000D03*
X155575000Y-83475000D03*
%TD*%
D17*
%TO.C,R2*%
X135375000Y-110025000D03*
X136175000Y-110025000D03*
%TD*%
D15*
%TO.C,C16*%
X157375000Y-85275000D03*
X158175000Y-85275000D03*
%TD*%
D16*
%TO.C,TP4*%
X164904951Y-104684657D03*
%TD*%
D22*
%TO.C,FD3*%
X147150000Y-69700000D03*
%TD*%
D17*
%TO.C,R4*%
X135375000Y-113625000D03*
X136175000Y-113625000D03*
%TD*%
D15*
%TO.C,C18*%
X157375000Y-88875000D03*
X158175000Y-88875000D03*
%TD*%
D23*
%TO.C,H2*%
X138450000Y-80050000D03*
%TD*%
D16*
%TO.C,TP9*%
X137854951Y-107384657D03*
%TD*%
%TO.C,TP6*%
X137854951Y-102704951D03*
%TD*%
D15*
%TO.C,C13*%
X154775000Y-87075000D03*
X155575000Y-87075000D03*
%TD*%
D17*
%TO.C,R1*%
X135375000Y-108225000D03*
X136175000Y-108225000D03*
%TD*%
D16*
%TO.C,TP7*%
X137854951Y-104264853D03*
%TD*%
D24*
%TO.C,C5*%
X166800000Y-108000000D03*
X168000000Y-108000000D03*
%TD*%
D16*
%TO.C,TP8*%
X137854951Y-105824755D03*
%TD*%
D15*
%TO.C,C12*%
X154775000Y-85275000D03*
X155575000Y-85275000D03*
%TD*%
D16*
%TO.C,TP2*%
X164904951Y-101564853D03*
%TD*%
D25*
%TO.C,J1*%
X157250000Y-93650000D03*
X158500000Y-93650000D03*
X159750000Y-93650000D03*
X161000000Y-93650000D03*
X162250000Y-93650000D03*
D26*
X155400000Y-96850000D03*
X164100000Y-96850000D03*
%TD*%
D22*
%TO.C,FD1*%
X144000000Y-69700000D03*
%TD*%
D27*
%TO.C,Y1*%
X142820000Y-109240000D03*
X144220000Y-109240000D03*
%TD*%
D16*
%TO.C,TP3*%
X164904951Y-103124755D03*
%TD*%
D15*
%TO.C,C19*%
X159975000Y-83475000D03*
X160775000Y-83475000D03*
%TD*%
%TO.C,C7*%
X135375000Y-104625000D03*
X136175000Y-104625000D03*
%TD*%
D28*
%TO.C,U1*%
X167062500Y-93225000D03*
X167062500Y-94175000D03*
X167062500Y-95125000D03*
X169337500Y-95125000D03*
X169337500Y-93225000D03*
%TD*%
D17*
%TO.C,R3*%
X135375000Y-111825000D03*
X136175000Y-111825000D03*
%TD*%
%TO.C,R5*%
X159975000Y-85275000D03*
X160775000Y-85275000D03*
%TD*%
D15*
%TO.C,C6*%
X135375000Y-102825000D03*
X136175000Y-102825000D03*
%TD*%
D16*
%TO.C,TP5*%
X164904951Y-106244559D03*
%TD*%
D23*
%TO.C,H3*%
X138450000Y-88000000D03*
%TD*%
%TO.C,H4*%
X138450000Y-95950000D03*
%TD*%
D22*
%TO.C,FD5*%
X150300000Y-69700000D03*
%TD*%
D15*
%TO.C,C2*%
X166575000Y-101925000D03*
X167375000Y-101925000D03*
%TD*%
D29*
%TO.C,J2*%
X158000000Y-102000000D03*
X160000000Y-102000000D03*
D30*
X155650000Y-107750000D03*
X162350000Y-107750000D03*
%TD*%
D23*
%TO.C,H1*%
X138450000Y-72100000D03*
%TD*%
D22*
%TO.C,FD4*%
X147150000Y-72850000D03*
%TD*%
D15*
%TO.C,C4*%
X166575000Y-103725000D03*
X167375000Y-103725000D03*
%TD*%
D22*
%TO.C,FD6*%
X150300000Y-72850000D03*
%TD*%
D31*
%TO.C,C9*%
X139580000Y-108600000D03*
X140540000Y-108600000D03*
%TD*%
%TO.C,C10*%
X139580000Y-110570000D03*
X140540000Y-110570000D03*
%TD*%
D24*
%TO.C,C3*%
X166800000Y-105750000D03*
X168000000Y-105750000D03*
%TD*%
%LPD*%
M02*
