%TF.GenerationSoftware,KiCad,Pcbnew,9.0.7+1*%
%TF.CreationDate,Date%
%TF.ProjectId,01_HAT_INA226,30315f48-4154-45f4-994e-413232362e6b,+ (Unreleased)*%
%TF.SameCoordinates,Original*%
%TF.FileFunction,Soldermask,Top*%
%TF.FilePolarity,Negative*%
%FSLAX46Y46*%
G04 Gerber Fmt 4.6, Leading zero omitted, Abs format (unit mm)*
G04 Created by KiCad*
%MOMM*%
%LPD*%
G01*
G04 APERTURE LIST*
G04 Aperture macros list*
%AMRoundRect*
0 Rectangle with rounded corners*
0 $1 Rounding radius*
0 $2 $3 $4 $5 $6 $7 $8 $9 X,Y pos of 4 corners*
0 Add a 4 corners polygon primitive as box body*
4,1,4,$2,$3,$4,$5,$6,$7,$8,$9,$2,$3,0*
0 Add four circle primitives for the rounded corners*
1,1,$1+$1,$2,$3*
1,1,$1+$1,$4,$5*
1,1,$1+$1,$6,$7*
1,1,$1+$1,$8,$9*
0 Add four rect primitives between the rounded corners*
20,1,$1+$1,$2,$3,$4,$5,0*
20,1,$1+$1,$4,$5,$6,$7,0*
20,1,$1+$1,$6,$7,$8,$9,0*
20,1,$1+$1,$8,$9,$2,$3,0*%
G04 Aperture macros list end*
%ADD10RoundRect,0.155000X-0.155000X-0.155000X0.155000X-0.155000X0.155000X0.155000X-0.155000X0.155000X0*%
%ADD11C,0.499800*%
%ADD12RoundRect,0.162500X-0.162500X-0.162500X0.162500X-0.162500X0.162500X0.162500X-0.162500X0.162500X0*%
%ADD13RoundRect,0.095000X-0.555000X-0.095000X0.555000X-0.095000X0.555000X0.095000X-0.555000X0.095000X0*%
%ADD14RoundRect,0.095000X-0.095000X-0.555000X0.095000X-0.555000X0.095000X0.555000X-0.095000X0.555000X0*%
%ADD15RoundRect,0.050000X-0.127000X-0.337500X0.127000X-0.337500X0.127000X0.337500X-0.127000X0.337500X0*%
%ADD16RoundRect,0.050000X0.337500X-0.127000X0.337500X0.127000X-0.337500X0.127000X-0.337500X-0.127000X0*%
%ADD17C,2.000000*%
%ADD18C,6.500000*%
%ADD19RoundRect,0.212500X-0.212500X-0.287500X0.212500X-0.287500X0.212500X0.287500X-0.212500X0.287500X0*%
%ADD20RoundRect,0.175000X-0.175000X-0.725000X0.175000X-0.725000X0.175000X0.725000X-0.175000X0.725000X0*%
%ADD21RoundRect,0.275000X-0.275000X-1.125000X0.275000X-1.125000X0.275000X1.125000X-0.275000X1.125000X0*%
%ADD22RoundRect,0.175000X-0.175000X-0.425000X0.175000X-0.425000X0.175000X0.425000X-0.175000X0.425000X0*%
%ADD23RoundRect,0.175000X-0.537500X-0.175000X0.537500X-0.175000X0.537500X0.175000X-0.537500X0.175000X0*%
%ADD24RoundRect,0.275000X-0.275000X-1.525000X0.275000X-1.525000X0.275000X1.525000X-0.275000X1.525000X0*%
%ADD25RoundRect,0.266667X-0.533333X-1.483333X0.533333X-1.483333X0.533333X1.483333X-0.533333X1.483333X0*%
%ADD26RoundRect,0.165000X-0.165000X-0.195000X0.165000X-0.195000X0.165000X0.195000X-0.165000X0.195000X0*%
G04 APERTURE END LIST*
D10*
%TO.C,C1*%
X166575000Y-100125000D03*
X167375000Y-100125000D03*
%TD*%
%TO.C,C14*%
X154775000Y-88875000D03*
X155575000Y-88875000D03*
%TD*%
D11*
%TO.C,TP1*%
X164904951Y-100004951D03*
%TD*%
D12*
%TO.C,R6*%
X159975000Y-87075000D03*
X160775000Y-87075000D03*
%TD*%
D10*
%TO.C,C15*%
X157375000Y-83475000D03*
X158175000Y-83475000D03*
%TD*%
D13*
%TO.C,U3*%
X155350000Y-71600000D03*
X155350000Y-72100000D03*
X155350000Y-72600000D03*
X155350000Y-73100000D03*
X155350000Y-73600000D03*
X155350000Y-74100000D03*
X155350000Y-74600000D03*
X155350000Y-75100000D03*
X155350000Y-75600000D03*
X155350000Y-76100000D03*
X155350000Y-76600000D03*
X155350000Y-77100000D03*
X155350000Y-77600000D03*
X155350000Y-78100000D03*
X155350000Y-78600000D03*
X155350000Y-79100000D03*
D14*
X157350000Y-81100000D03*
X157850000Y-81100000D03*
X158350000Y-81100000D03*
X158850000Y-81100000D03*
X159350000Y-81100000D03*
X159850000Y-81100000D03*
X160350000Y-81100000D03*
X160850000Y-81100000D03*
X161350000Y-81100000D03*
X161850000Y-81100000D03*
X162350000Y-81100000D03*
X162850000Y-81100000D03*
X163350000Y-81100000D03*
X163850000Y-81100000D03*
X164350000Y-81100000D03*
X164850000Y-81100000D03*
D13*
X166850000Y-79100000D03*
X166850000Y-78600000D03*
X166850000Y-78100000D03*
X166850000Y-77600000D03*
X166850000Y-77100000D03*
X166850000Y-76600000D03*
X166850000Y-76100000D03*
X166850000Y-75600000D03*
X166850000Y-75100000D03*
X166850000Y-74600000D03*
X166850000Y-74100000D03*
X166850000Y-73600000D03*
X166850000Y-73100000D03*
X166850000Y-72600000D03*
X166850000Y-72100000D03*
X166850000Y-71600000D03*
D14*
X164850000Y-69600000D03*
X164350000Y-69600000D03*
X163850000Y-69600000D03*
X163350000Y-69600000D03*
X162850000Y-69600000D03*
X162350000Y-69600000D03*
X161850000Y-69600000D03*
X161350000Y-69600000D03*
X160850000Y-69600000D03*
X160350000Y-69600000D03*
X159850000Y-69600000D03*
X159350000Y-69600000D03*
X158850000Y-69600000D03*
X158350000Y-69600000D03*
X157850000Y-69600000D03*
X157350000Y-69600000D03*
%TD*%
D10*
%TO.C,C8*%
X135375000Y-106425000D03*
X136175000Y-106425000D03*
%TD*%
D15*
%TO.C,U2*%
X139995000Y-103182500D03*
D16*
X139857500Y-104095000D03*
X139857500Y-104595000D03*
X139857500Y-105095000D03*
X139857500Y-105595000D03*
D15*
X139995000Y-106507500D03*
X140495000Y-106507500D03*
X140995000Y-106507500D03*
X141495000Y-106507500D03*
X141995000Y-106507500D03*
X142495000Y-106507500D03*
X142995000Y-106507500D03*
X143495000Y-106507500D03*
X143995000Y-106507500D03*
X144495000Y-106507500D03*
D16*
X144632500Y-105595000D03*
X144632500Y-105095000D03*
X144632500Y-104595000D03*
X144632500Y-104095000D03*
D15*
X144495000Y-103182500D03*
X143995000Y-103182500D03*
X143495000Y-103182500D03*
X142995000Y-103182500D03*
X142495000Y-103182500D03*
X141995000Y-103182500D03*
X141495000Y-103182500D03*
X140995000Y-103182500D03*
X140495000Y-103182500D03*
%TD*%
D17*
%TO.C,FD2*%
X144000000Y-72850000D03*
%TD*%
D10*
%TO.C,C17*%
X157375000Y-87075000D03*
X158175000Y-87075000D03*
%TD*%
%TO.C,C11*%
X154775000Y-83475000D03*
X155575000Y-83475000D03*
%TD*%
D12*
%TO.C,R2*%
X135375000Y-110025000D03*
X136175000Y-110025000D03*
%TD*%
D10*
%TO.C,C16*%
X157375000Y-85275000D03*
X158175000Y-85275000D03*
%TD*%
D11*
%TO.C,TP4*%
X164904951Y-104684657D03*
%TD*%
D17*
%TO.C,FD3*%
X147150000Y-69700000D03*
%TD*%
D12*
%TO.C,R4*%
X135375000Y-113625000D03*
X136175000Y-113625000D03*
%TD*%
D10*
%TO.C,C18*%
X157375000Y-88875000D03*
X158175000Y-88875000D03*
%TD*%
D18*
%TO.C,H2*%
X138450000Y-80050000D03*
%TD*%
D11*
%TO.C,TP9*%
X137854951Y-107384657D03*
%TD*%
%TO.C,TP6*%
X137854951Y-102704951D03*
%TD*%
D10*
%TO.C,C13*%
X154775000Y-87075000D03*
X155575000Y-87075000D03*
%TD*%
D12*
%TO.C,R1*%
X135375000Y-108225000D03*
X136175000Y-108225000D03*
%TD*%
D11*
%TO.C,TP7*%
X137854951Y-104264853D03*
%TD*%
D19*
%TO.C,C5*%
X166800000Y-108000000D03*
X168000000Y-108000000D03*
%TD*%
D11*
%TO.C,TP8*%
X137854951Y-105824755D03*
%TD*%
D10*
%TO.C,C12*%
X154775000Y-85275000D03*
X155575000Y-85275000D03*
%TD*%
D11*
%TO.C,TP2*%
X164904951Y-101564853D03*
%TD*%
D20*
%TO.C,J1*%
X157250000Y-93650000D03*
X158500000Y-93650000D03*
X159750000Y-93650000D03*
X161000000Y-93650000D03*
X162250000Y-93650000D03*
D21*
X155400000Y-96850000D03*
X164100000Y-96850000D03*
%TD*%
D17*
%TO.C,FD1*%
X144000000Y-69700000D03*
%TD*%
D22*
%TO.C,Y1*%
X142820000Y-109240000D03*
X144220000Y-109240000D03*
%TD*%
D11*
%TO.C,TP3*%
X164904951Y-103124755D03*
%TD*%
D10*
%TO.C,C19*%
X159975000Y-83475000D03*
X160775000Y-83475000D03*
%TD*%
%TO.C,C7*%
X135375000Y-104625000D03*
X136175000Y-104625000D03*
%TD*%
D23*
%TO.C,U1*%
X167062500Y-93225000D03*
X167062500Y-94175000D03*
X167062500Y-95125000D03*
X169337500Y-95125000D03*
X169337500Y-93225000D03*
%TD*%
D12*
%TO.C,R3*%
X135375000Y-111825000D03*
X136175000Y-111825000D03*
%TD*%
%TO.C,R5*%
X159975000Y-85275000D03*
X160775000Y-85275000D03*
%TD*%
D10*
%TO.C,C6*%
X135375000Y-102825000D03*
X136175000Y-102825000D03*
%TD*%
D11*
%TO.C,TP5*%
X164904951Y-106244559D03*
%TD*%
D18*
%TO.C,H3*%
X138450000Y-88000000D03*
%TD*%
%TO.C,H4*%
X138450000Y-95950000D03*
%TD*%
D17*
%TO.C,FD5*%
X150300000Y-69700000D03*
%TD*%
D10*
%TO.C,C2*%
X166575000Y-101925000D03*
X167375000Y-101925000D03*
%TD*%
D24*
%TO.C,J2*%
X158000000Y-102000000D03*
X160000000Y-102000000D03*
D25*
X155650000Y-107750000D03*
X162350000Y-107750000D03*
%TD*%
D18*
%TO.C,H1*%
X138450000Y-72100000D03*
%TD*%
D17*
%TO.C,FD4*%
X147150000Y-72850000D03*
%TD*%
D10*
%TO.C,C4*%
X166575000Y-103725000D03*
X167375000Y-103725000D03*
%TD*%
D17*
%TO.C,FD6*%
X150300000Y-72850000D03*
%TD*%
D26*
%TO.C,C9*%
X139580000Y-108600000D03*
X140540000Y-108600000D03*
%TD*%
%TO.C,C10*%
X139580000Y-110570000D03*
X140540000Y-110570000D03*
%TD*%
D19*
%TO.C,C3*%
X166800000Y-105750000D03*
X168000000Y-105750000D03*
%TD*%
M02*
